<?xml version="1.0" encoding="UTF-8"?>
<svg id="Layer_1" xmlns="http://www.w3.org/2000/svg" xmlns:xlink="http://www.w3.org/1999/xlink" version="1.1" viewBox="0 0 2244.4 2244.4">
  <!-- Generator: Adobe Illustrator 29.3.1, SVG Export Plug-In . SVG Version: 2.1.0 Build 151)  -->
  <defs>
    <style>
      .st0 {
        fill: #223b63;
      }

      .st1 {
        fill: #17355d;
      }

      .st2 {
        clip-path: url(#clippath);
      }
    </style>
    <clipPath id="clippath">
      <rect class="st1" width="2244.4" height="2244.4"/>
    </clipPath>
  </defs>
  <rect class="st1" width="2244.4" height="2244.4"/>
  <g class="st2">
    <g>
      <path class="st0" d="M615.3-11.7c-1052.8,0-1909.6,854.3-1909.6,1904s856.6,1904,1909.6,1904,1909.6-854.3,1909.6-1904S1668-11.7,615.3-11.7ZM-1179.7,1892.3c0-987,805.2-1789.8,1795-1789.8s1795,802.8,1795,1789.8-805.2,1789.8-1795,1789.8-1795-802.8-1795-1789.8Z"/>
      <path class="st0" d="M421,393.3c-42.2,5.3-84.1,12.5-125,21.3,6.3,18.2,12.3,36.4,18.3,54.6,71.8,238.1,123.4,480.9,162.2,726.9-69.3-234.4-163.4-463.1-293.2-664.8-28-43.3-82.8-61.5-130.7-42-46.6,18.5-92.3,39.5-136.4,62.7,27.4,30.4,53.9,62.1,79,95.1,131.6,179.5,237.4,376.2,321.8,583.2C190.1,1019.8,27,831.9-167.6,687.6c-39-28.9-92.3-28.9-131,.6-45.3,34.5-88.5,71.2-129.4,110.4,56.4,26.4,111.8,56.2,164.7,90.7,199.7,133,365.9,308.4,497.9,508.9-186.1-211.1-422.6-378.4-686.2-473.4-44.4-16-93.8-1.9-123.1,35.1-38.4,48.9-74,100.1-106.4,153.7,279.6,36.4,553.9,177.9,764.3,362.4,21.7,18.8,42.8,38.6,63.3,58.7-22.7-16.3-45.7-32-69-46.7-218.5-137.1-475.2-240.9-736.9-267-46.6-4.7-91.3,20.7-110.2,63.7-25.8,59-48.2,120.2-66.4,182.6,278.1-47.1,583.5,33.9,832.3,157.2,24.6,12.2,48.5,25.7,72.4,39.5-274-99.5-599.9-106.7-867.3-55.8h-1.3c-44.7,9.1-78.4,45.5-84.1,90.4-9.1,70-13.2,141.5-12,214.3h.3c262.6-137.7,601.5-161.6,890.3-106.7,284.4,55.2,485.6,227.1,564.3,478.7l-10.7,483.8c-96.7-69-206-120.8-317.4-160.9-312.1-109.2-651.9-113.3-975.9-61.5,12.3,25.1,25.2,49.6,38.7,73.7,22.4,39.8,67.1,62.1,112.1,54.6,96-16,193-26.7,291-30.1,169.4-4.7,340.1,11.9,503.2,59.3,150.5,44.5,299.2,111.7,416.3,217.4,117.1-105.7,265.8-172.9,416.3-217.4,163.1-47.1,333.8-63.7,503.2-59.3,97.6,3.5,194.3,13.8,290,29.8,44.7,7.5,89.8-14.7,111.8-54.3,13.5-24.2,26.5-48.9,38.7-74-323.7-51.8-663.2-47.7-975,61.5-111.8,40.2-221.4,92.2-318.4,161.6l-10.4-482.8c78.1-252.5,280-424.8,564.6-480.3,288.8-54.9,627-31.1,889.9,106.4h.3c1.3-72.8-3.1-144-12-214-5.7-44.9-39.7-81.3-84.4-90.4h-.6c-278.1-54.9-599.3-41.4-867.6,57.4,179.2-108.9,386.1-178.2,591.7-201.1,100.8-11.9,209.7-14.1,312.7,1.6-18.3-62.4-40.3-123-66.1-181.6-18.9-43-63.3-68.4-110.2-63.7-261.7,26-517.7,129.9-736.3,267-23,14.4-45.3,29.8-67.7,45.5,156.2-153.4,344.5-274.8,548.9-350.1,90.4-33.6,183.9-57.4,276.8-69.6-32.1-53.3-67.7-104.5-105.8-153.1-29.3-37-78.4-51.1-122.8-35.1-259.8,93.5-494.7,256.6-679.6,464,130.4-197.6,294.8-371.8,491.3-499.8,52.9-34.5,107.7-64.3,164.1-90.7-40.9-39.2-84.1-75.9-129.4-110.4-38.4-29.2-91.6-29.5-130.7-.9-194,142.7-355.9,327.8-482.8,537.7,97.9-247.2,227.1-484.1,398.4-672.9-43.8-22.9-88.5-43.6-134.8-61.8-47.9-19.1-102.7-1.6-130.7,41.7-125.3,195.1-221.4,417.6-292.2,650.7,38.4-240.9,89.4-479.4,160-713.1,5.7-18.2,12-36.4,18.3-54.6-41.3-8.8-82.8-16-125-21.3-54.2-6.9-105.5,28.9-117.1,82.2-34.3,156.2-59.5,314.7-77.5,473.7-17.9-159.4-43.1-317.5-77.5-474-10.7-48.9-54.8-82.8-103.6-82.8s-8.8,0-13.5.9M-629,2744.7c20.5,29.5,41.9,58,64.2,86,23.9,29.5,60.8,44.9,98.6,40.5,53.9-6,108-10,162.2-12.2,169.4-4.7,340.1,11.9,503.2,59.3,150.5,44.5,299.2,111.7,416.3,217.4,117.1-105.7,265.8-172.9,416.3-217.4,163.1-47.1,333.8-63.7,503.2-59.3,53.9,1.9,107.7,6,161.2,11.9,37.8,4.1,74.6-11,98.6-40.5,22.4-27.9,44.1-56.5,64.2-86-287.8-33.3-583.5-18.5-858.1,77.5-138.2,49.6-273.7,117.3-385.5,213.3-111.8-96.3-246.9-163.8-385.5-213.3-188.9-66.2-387.7-93.8-587-93.8s-182,5.6-272.1,16.3M-462.1,2945.8c35.9,36.4,73.7,70.9,113.1,103.2,19.8,16.3,45,24.8,70.9,24.2,85-2.2,294.4,0,477.1,59.9,149.3,48.9,299.2,111.7,416.3,217.4,117.1-105.7,266.7-169.7,416.3-217.4,183.9-58.7,391.8-61.5,476.5-59.9,25.8.6,50.7-7.8,70.5-24.2,39.7-32.6,77.5-67.1,113.4-103.5-234-11-469.5,13.8-691.2,91.3-138.2,49.6-273.7,117.3-385.5,213.3-111.8-96.3-246.9-163.8-385.5-213.3-188.9-66.2-388-93.8-587.6-93.8s-69.9.9-104.6,2.5M518.3,3392.2c-89.1-58.7-187.7-104.5-287.8-140.2-135.4-47.4-275.9-74.7-418.2-86.6,206.9,129.6,447.5,210.5,706,226.8ZM1001,3252c-100.1,36.1-198.4,81.6-287.5,140.2,257.9-16.6,497.9-97.3,704.5-226.8-141.7,11.9-281.8,39.2-416.9,86.6Z"/>
    </g>
  </g>
</svg>